<svg width="50" height="42" viewBox="0 0 50 42" fill="none" xmlns="http://www.w3.org/2000/svg">
<path id="Vector" d="M50 0H17.6758V8.88672H9.17969L5.66406 20.6055H0V35.2539H5.85938V35.3516C5.85938 38.5742 8.49609 41.2109 11.7188 41.2109C15.0391 41.2109 17.6758 38.5742 17.6758 35.3516V35.2539H32.3242V35.3516C32.3242 38.5742 34.9609 41.2109 38.2812 41.2109C41.5039 41.2109 44.1406 38.5742 44.1406 35.3516V35.2539H50V0ZM11.4258 11.8164H17.6758V20.6055H8.78906L11.4258 11.8164ZM11.7188 38.2812C10.1562 38.2812 8.78906 36.9141 8.78906 35.3516C8.78906 33.6914 10.1562 32.4219 11.7188 32.4219C13.3789 32.4219 14.7461 33.6914 14.7461 35.3516C14.7461 36.9141 13.3789 38.2812 11.7188 38.2812ZM38.2812 38.2812C36.6211 38.2812 35.2539 36.9141 35.2539 35.3516C35.2539 33.6914 36.6211 32.4219 38.2812 32.4219C39.8438 32.4219 41.2109 33.6914 41.2109 35.3516C41.2109 36.9141 39.8438 38.2812 38.2812 38.2812ZM47.0703 32.3242H43.2617C42.1875 30.5664 40.332 29.4922 38.2812 29.4922C36.1328 29.4922 34.2773 30.5664 33.2031 32.3242H16.7969C15.7227 30.5664 13.8672 29.4922 11.7188 29.4922C9.66797 29.4922 7.8125 30.5664 6.73828 32.3242H2.92969V23.5352H20.6055V2.92969H47.0703V32.3242Z" fill="black"/>
</svg>
