<svg width="50" height="50" viewBox="0 0 50 50" fill="none" xmlns="http://www.w3.org/2000/svg">
<g id="Icon" clip-path="url(#clip0_9_88)">
<path id="Vector" d="M6.28651 43.6645C4.56526 43.6645 3.1676 42.2669 3.1676 40.5456V3.11872C3.1676 1.39747 4.56526 -0.000190735 6.28651 -0.000190735H37.4756C39.1968 -0.000190735 40.5945 1.39747 40.5945 3.11872V6.23763H43.7134C45.4347 6.23763 46.8323 7.63529 46.8323 9.35653V46.7834C46.8323 48.5047 45.4347 49.9023 43.7134 49.9023H12.5243C10.8031 49.9023 9.40542 48.5047 9.40542 46.7834V43.6645H6.28651ZM43.7134 9.35653H40.5945V40.5456C40.5945 42.2669 39.1968 43.6645 37.4756 43.6645H12.5243V46.7834H43.7134V9.35653ZM32.7972 6.23763H20.191C19.3294 6.23763 18.6315 6.93645 18.6315 7.79708C18.6315 8.6577 19.3294 9.35653 20.191 9.35653H32.7972C33.6579 9.35653 34.3567 8.6577 34.3567 7.79708C34.3567 6.93645 33.6579 6.23763 32.7972 6.23763ZM10.8343 15.5944C9.97267 15.5944 9.27482 16.2932 9.27482 17.1538C9.27482 18.0144 9.97267 18.7133 10.8343 18.7133H32.7972C33.6579 18.7133 34.3567 18.0144 34.3567 17.1538C34.3567 16.2932 33.6579 15.5944 32.7972 15.5944H10.8343ZM10.8343 24.9511C9.97267 24.9511 9.27482 25.6499 9.27482 26.5105C9.27482 27.3712 9.97267 28.07 10.8343 28.07H32.7972C33.6579 28.07 34.3567 27.3712 34.3567 26.5105C34.3567 25.6499 33.6579 24.9511 32.7972 24.9511H10.8343ZM10.8343 34.3078C9.97267 34.3078 9.27482 35.0066 9.27482 35.8673C9.27482 36.7279 9.97267 37.4267 10.8343 37.4267H32.7972C33.6579 37.4267 34.3567 36.7279 34.3567 35.8673C34.3567 35.0066 33.6579 34.3078 32.7972 34.3078H10.8343Z" fill="black"/>
</g>
<defs>
<clipPath id="clip0_9_88">
<rect width="50" height="50" fill="white" transform="matrix(1 0 0 -1 0 50)"/>
</clipPath>
</defs>
</svg>
