<svg width="50" height="50" viewBox="0 0 50 50" fill="none" xmlns="http://www.w3.org/2000/svg">
<g id="Icon" clip-path="url(#clip0_9_91)">
<path id="Vector" d="M46.0938 17.6758C43.2617 7.22656 34.7656 0 25 0C15.332 0 6.73828 7.22656 3.90625 17.6758C1.75781 17.9688 0 19.8242 0 22.0703V33.7891C0 35.6445 1.17188 37.207 2.73438 37.8906C3.32031 43.0664 7.61719 47.0703 12.8906 47.0703H20.8984C21.4844 48.7305 23.0469 50 25 50H33.7891C36.2305 50 38.2812 48.0469 38.2812 45.6055C38.2812 43.1641 36.2305 41.2109 33.7891 41.2109H25C23.0469 41.2109 21.4844 42.3828 20.8984 44.1406H12.8906C9.375 44.1406 6.34766 41.6016 5.66406 38.2812H8.78906V35.2539H11.7188V20.6055H8.78906V17.6758H7.03125C9.76562 8.98438 16.8945 2.92969 25 2.92969C33.1055 2.92969 40.2344 8.88672 42.9688 17.6758H41.2109V20.6055H38.2812V35.2539H41.2109V38.2812H45.6055C48.0469 38.2812 50 36.2305 50 33.7891V22.0703C50 19.8242 48.2422 17.9688 46.0938 17.6758ZM25 44.1406H33.7891C34.668 44.1406 35.2539 44.8242 35.2539 45.6055C35.2539 46.3867 34.668 47.0703 33.7891 47.0703H25C24.2188 47.0703 23.5352 46.3867 23.5352 45.6055C23.5352 44.8242 24.2188 44.1406 25 44.1406ZM5.85938 35.2539H4.39453C3.61328 35.2539 2.92969 34.668 2.92969 33.7891V22.0703C2.92969 21.2891 3.61328 20.6055 4.39453 20.6055H5.85938V35.2539ZM47.0703 33.7891C47.0703 34.668 46.3867 35.2539 45.6055 35.2539H44.1406V20.6055H45.6055C46.3867 20.6055 47.0703 21.2891 47.0703 22.0703V33.7891Z" fill="black"/>
</g>
<defs>
<clipPath id="clip0_9_91">
<rect width="50" height="50" fill="white" transform="matrix(1 0 0 -1 0 50)"/>
</clipPath>
</defs>
</svg>
