<svg width="50" height="40" viewBox="0 0 50 40" fill="none" xmlns="http://www.w3.org/2000/svg">
<path id="Vector" d="M10.0012 7.5C12.0715 7.5 13.7512 5.82031 13.7512 3.75C13.7512 1.67969 12.0715 0 10.0012 0C7.93086 0 6.25117 1.67969 6.25117 3.75C6.25117 5.82031 7.93086 7.5 10.0012 7.5ZM40.0012 7.5C42.0715 7.5 43.7512 5.82031 43.7512 3.75C43.7512 1.67969 42.0715 0 40.0012 0C37.9309 0 36.2512 1.67969 36.2512 3.75C36.2512 5.82031 37.9309 7.5 40.0012 7.5ZM49.8215 36.5703L46.384 27.9766L43.173 31.6016L43.0168 33.0234L45.1809 38.4297C45.5715 39.4062 46.509 40 47.5012 40C47.8137 40 48.1262 39.9453 48.4309 39.8203C49.7121 39.3047 50.3371 37.8516 49.8215 36.5703ZM47.1496 20.1797L45.7043 13.9141C45.3449 12.3516 44.2512 11.0391 42.7746 10.4062C41.3293 9.78125 39.7277 9.88281 38.3918 10.6641C36.6184 11.7109 35.2902 13.3594 34.634 15.3047L33.7512 17.9531L32.5012 18.75V11.25C32.5012 10.5625 31.9387 10 31.2512 10H18.7512C18.0637 10 17.5012 10.5625 17.5012 11.25V18.75L16.2434 17.9531L15.3605 15.3047C14.7121 13.3516 13.3762 11.7109 11.6027 10.6641C10.259 9.88281 8.66523 9.78125 7.21992 10.4062C5.74336 11.0391 4.64961 12.3516 4.29023 13.9141L2.85273 20.1797C2.49336 21.7422 2.90742 23.3984 3.97773 24.6094L9.22773 30.5391L10.0168 37.7734C10.1574 39.0469 11.2355 40 12.5012 40C12.5949 40 12.6809 39.9922 12.7746 39.9844C14.1496 39.8359 15.134 38.6016 14.9855 37.2266L14.1965 29.9766C14.0793 28.9609 13.6574 28.0156 12.9777 27.2422L9.59492 23.4141L10.9699 17.9219L11.5012 19.5156C11.8215 20.4922 12.4309 21.3438 13.4152 22.0625L17.4074 24.6016C17.7668 24.8281 18.3527 24.9609 18.7512 24.9922H31.2512C31.6496 24.9609 32.2355 24.8281 32.5949 24.6016L36.5871 22.0625C37.5715 21.3438 38.1809 20.5 38.5012 19.5156L39.0324 17.9219L40.4074 23.4141L37.0246 27.2422C36.3449 28.0156 35.923 28.9609 35.8059 29.9766L35.0168 37.2266C34.8684 38.6016 35.8605 39.8359 37.2277 39.9844C37.3215 39.9922 37.4074 40 37.5012 40C38.759 40 39.8449 39.0547 39.9855 37.7734L40.7746 30.5391L46.0246 24.6094C47.0871 23.3984 47.509 21.7422 47.1496 20.1797ZM3.61836 27.9766L0.180858 36.5703C-0.334767 37.8516 0.290233 39.3047 1.57148 39.8203C2.88398 40.3359 4.31367 39.6875 4.82148 38.4297L6.98555 33.0234L6.8293 31.6016L3.61836 27.9766Z" fill="black"/>
</svg>
