<svg width="50" height="50" viewBox="0 0 50 50" fill="none" xmlns="http://www.w3.org/2000/svg">
<g id="SVG">
<path id="Vector" d="M3.92192 34.3438C4.1016 35.0078 4.78911 35.4062 5.45317 35.2266L22.3594 30.6953C23.0235 30.5156 23.4219 29.8281 23.2422 29.1641L19.3594 14.6719C19.1797 14.0078 18.4922 13.6094 17.8282 13.7891L11.7969 15.4141L13.7344 22.6562L8.90629 23.9453L6.96879 16.7031L0.92973 18.3203C0.265668 18.5 -0.13277 19.1875 0.0469177 19.8516L3.92192 34.3438ZM30 5C28.6172 5 27.5 6.11719 27.5 7.5V32.7812L0.46098 40.1562C0.125043 40.25 -0.0702698 40.5938 0.0234802 40.9219L1.00786 44.5391C1.10161 44.875 1.44536 45.0703 1.77348 44.9766L32.5313 36.5859C32.7188 41.2578 36.5313 45 41.25 45C46.086 45 50 41.0859 50 36.25V5H30ZM41.25 40C39.1797 40 37.5 38.3203 37.5 36.25C37.5 34.1797 39.1797 32.5 41.25 32.5C43.3204 32.5 45 34.1797 45 36.25C45 38.3203 43.3204 40 41.25 40Z" fill="#1791C8"/>
</g>
</svg>
