<svg width="50" height="50" viewBox="0 0 50 50" fill="none" xmlns="http://www.w3.org/2000/svg">
<g id="SVG">
<path id="Vector" d="M48.75 32.5H47.5V24.0547C47.5 23.0625 47.1016 22.1094 46.3984 21.4062L38.5938 13.6016C37.8906 12.8984 36.9375 12.5 35.9453 12.5H32.5V8.75C32.5 6.67969 30.8203 5 28.75 5H3.75C1.67969 5 0 6.67969 0 8.75V33.75C0 35.8203 1.67969 37.5 3.75 37.5H5C5 41.6406 8.35938 45 12.5 45C16.6406 45 20 41.6406 20 37.5H30C30 41.6406 33.3594 45 37.5 45C41.6406 45 45 41.6406 45 37.5H48.75C49.4375 37.5 50 36.9375 50 36.25V33.75C50 33.0625 49.4375 32.5 48.75 32.5ZM12.5 41.25C10.4297 41.25 8.75 39.5703 8.75 37.5C8.75 35.4297 10.4297 33.75 12.5 33.75C14.5703 33.75 16.25 35.4297 16.25 37.5C16.25 39.5703 14.5703 41.25 12.5 41.25ZM37.5 41.25C35.4297 41.25 33.75 39.5703 33.75 37.5C33.75 35.4297 35.4297 33.75 37.5 33.75C39.5703 33.75 41.25 35.4297 41.25 37.5C41.25 39.5703 39.5703 41.25 37.5 41.25ZM43.75 25H32.5V16.25H35.9453L43.75 24.0547V25Z" fill="#1791C8"/>
</g>
</svg>
